<svg viewBox="0 0 200 200" xmlns="http://www.w3.org/2000/svg">
  <clipPath id="maxMask">
    <path fill="#000" d="M48.8,-70.3C63.2,-61.5,76.6,-48.2,81.7,-32.3C86.9,-16.4,83.9,1.9,77.8,19.6C71.7,37.4,62.5,54.5,48.7,64.8C34.8,75.2,17.4,78.8,0.4,78.2C-16.5,77.6,-33,72.8,-45.6,62.6C-58.2,52.4,-66.8,36.7,-70.9,20.5C-75,-5.6,-74.6,-21.2,-68.4,-34.5C-62.1,-47.8,-50,-58.8,-36.1,-67.5C-22.3,-76.2,-11.2,-82.6,3.5,-87.2C18.3,-91.9,36.5,-94.7,48.8,-70.3Z" transform="translate(100 100)" />
  </clipPath>
</svg>
